<svg id="visual" viewBox="0 0 900 600" width="900" height="600" xmlns="http://www.w3.org/2000/svg" xmlns:xlink="http://www.w3.org/1999/xlink" version="1.1"><rect x="0" y="0" width="900" height="600" fill="#949494"></rect><defs><linearGradient id="grad1_0" x1="33.3%" y1="100%" x2="100%" y2="0%"><stop offset="20%" stop-color="#000000" stop-opacity="1"></stop><stop offset="80%" stop-color="#000000" stop-opacity="1"></stop></linearGradient></defs><defs><linearGradient id="grad1_1" x1="33.3%" y1="100%" x2="100%" y2="0%"><stop offset="20%" stop-color="#000000" stop-opacity="1"></stop><stop offset="80%" stop-color="#949494" stop-opacity="1"></stop></linearGradient></defs><defs><linearGradient id="grad2_0" x1="0%" y1="100%" x2="66.7%" y2="0%"><stop offset="20%" stop-color="#000000" stop-opacity="1"></stop><stop offset="80%" stop-color="#000000" stop-opacity="1"></stop></linearGradient></defs><defs><linearGradient id="grad2_1" x1="0%" y1="100%" x2="66.7%" y2="0%"><stop offset="20%" stop-color="#949494" stop-opacity="1"></stop><stop offset="80%" stop-color="#000000" stop-opacity="1"></stop></linearGradient></defs><g transform="translate(900, 600)"><path d="M-324.5 0C-292.4 -42.8 -260.3 -85.6 -237.3 -137C-214.3 -188.4 -200.3 -248.3 -162.2 -281C-124.2 -313.7 -62.1 -319.1 0 -324.5L0 0Z" fill="#484848"></path><path d="M-162.2 0C-146.2 -21.4 -130.2 -42.8 -118.6 -68.5C-107.1 -94.2 -100.1 -124.2 -81.1 -140.5C-62.1 -156.9 -31.1 -159.6 0 -162.2L0 0Z" fill="#000000"></path></g><g transform="translate(0, 0)"><path d="M324.5 0C290.6 41.7 256.6 83.5 233.8 135C211 186.5 199.4 247.8 162.2 281C125.1 314.2 62.6 319.4 0 324.5L0 0Z" fill="#484848"></path><path d="M162.2 0C145.3 20.9 128.3 41.7 116.9 67.5C105.5 93.3 99.7 123.9 81.1 140.5C62.6 157.1 31.3 159.7 0 162.2L0 0Z" fill="#000000"></path></g></svg>