<svg xmlns="http://www.w3.org/2000/svg" xmlns:xlink="http://www.w3.org/1999/xlink" width="226" zoomAndPan="magnify" viewBox="0 0 169.92 283.499996" height="377" preserveAspectRatio="xMidYMid meet" version="1.0"><defs><filter x="0%" y="0%" width="100%" height="100%" id="18b17fb460"><feColorMatrix values="0 0 0 0 1 0 0 0 0 1 0 0 0 0 1 0 0 0 1 0" color-interpolation-filters="sRGB"/></filter><clipPath id="b03b24384d"><path d="M 90 0 L 169.730469 0 L 169.730469 135 L 90 135 Z M 90 0 " clipRule="nonzero"/></clipPath><mask id="adafb366d7"><g filter="url(#18b17fb460)"><rect x="-16.992" width="203.904" fill="#000000" y="-28.35" height="340.199996" fill-opacity="0.16"/></g></mask><clipPath id="52b249ca94"><path d="M 1.070312 0 L 79.730469 0 L 79.730469 134.449219 L 1.070312 134.449219 Z M 1.070312 0 " clipRule="nonzero"/></clipPath><clipPath id="7e7c6d60a2"><path d="M 86.210938 134.449219 L 1.320312 -14.109375 L 171.101562 -14.109375 Z M 86.210938 134.449219 " clipRule="nonzero"/></clipPath><clipPath id="66755220ed"><rect x="0" width="80" y="0" height="135"/></clipPath><clipPath id="1da4c5f386"><path d="M 37 0 L 169.730469 0 L 169.730469 105 L 37 105 Z M 37 0 " clipRule="nonzero"/></clipPath><mask id="47350b8ce7"><g filter="url(#18b17fb460)"><rect x="-16.992" width="203.904" fill="#000000" y="-28.35" height="340.199996" fill-opacity="0.16"/></g></mask><clipPath id="7d92194485"><path d="M 0.503906 0 L 132.730469 0 L 132.730469 104.589844 L 0.503906 104.589844 Z M 0.503906 0 " clipRule="nonzero"/></clipPath><clipPath id="39e5e80a5c"><path d="M 85.640625 104.589844 L 0.75 -43.96875 L 170.53125 -43.96875 Z M 85.640625 104.589844 " clipRule="nonzero"/></clipPath><clipPath id="e644f98859"><rect x="0" width="133" y="0" height="105"/></clipPath><clipPath id="a6ff789b88"><path d="M 143 0 L 169.730469 0 L 169.730469 105 L 143 105 Z M 143 0 " clipRule="nonzero"/></clipPath><mask id="cdd2ff57d7"><g filter="url(#18b17fb460)"><rect x="-16.992" width="203.904" fill="#000000" y="-28.35" height="340.199996" fill-opacity="0.16"/></g></mask><clipPath id="3de18ece41"><path d="M 0.1875 0 L 26.730469 0 L 26.730469 104.589844 L 0.1875 104.589844 Z M 0.1875 0 " clipRule="nonzero"/></clipPath><clipPath id="21d2af1942"><path d="M 85.328125 104.589844 L 0.4375 -43.96875 L 170.21875 -43.96875 Z M 85.328125 104.589844 " clipRule="nonzero"/></clipPath><clipPath id="c62855705d"><rect x="0" width="27" y="0" height="105"/></clipPath><clipPath id="f3bd9b68f2"><path d="M 0.109375 158 L 85 158 L 85 283 L 0.109375 283 Z M 0.109375 158 " clipRule="nonzero"/></clipPath><mask id="329f7f4df6"><g filter="url(#18b17fb460)"><rect x="-16.992" width="203.904" fill="#000000" y="-28.35" height="340.199996" fill-opacity="0.16"/></g></mask><clipPath id="d39e0b0a69"><path d="M 0.109375 0.894531 L 84.523438 0.894531 L 84.523438 125 L 0.109375 125 Z M 0.109375 0.894531 " clipRule="nonzero"/></clipPath><clipPath id="be14c1bc2c"><path d="M -0.617188 0.894531 L 84.273438 149.453125 L -85.507812 149.453125 Z M -0.617188 0.894531 " clipRule="nonzero"/></clipPath><clipPath id="1b745e37ca"><rect x="0" width="85" y="0" height="125"/></clipPath><clipPath id="4a9e731e6f"><path d="M 0.109375 188 L 139 188 L 139 283 L 0.109375 283 Z M 0.109375 188 " clipRule="nonzero"/></clipPath><mask id="99566a8e69"><g filter="url(#18b17fb460)"><rect x="-16.992" width="203.904" fill="#000000" y="-28.35" height="340.199996" fill-opacity="0.16"/></g></mask><clipPath id="132a6f6029"><path d="M 0.109375 0.753906 L 138 0.753906 L 138 95 L 0.109375 95 Z M 0.109375 0.753906 " clipRule="nonzero"/></clipPath><clipPath id="e42375f016"><path d="M 52.953125 0.753906 L 137.84375 149.3125 L -31.9375 149.3125 Z M 52.953125 0.753906 " clipRule="nonzero"/></clipPath><clipPath id="b4c89e380f"><rect x="0" width="139" y="0" height="95"/></clipPath><clipPath id="9d02edb7c4"><path d="M 0.109375 188 L 33 188 L 33 283 L 0.109375 283 Z M 0.109375 188 " clipRule="nonzero"/></clipPath><mask id="c4d3e35d14"><g filter="url(#18b17fb460)"><rect x="-16.992" width="203.904" fill="#000000" y="-28.35" height="340.199996" fill-opacity="0.16"/></g></mask><clipPath id="68fb22560a"><path d="M 0.109375 0.753906 L 32.40625 0.753906 L 32.40625 95 L 0.109375 95 Z M 0.109375 0.753906 " clipRule="nonzero"/></clipPath><clipPath id="b407b54d74"><path d="M -52.734375 0.753906 L 32.15625 149.3125 L -137.621094 149.3125 Z M -52.734375 0.753906 " clipRule="nonzero"/></clipPath><clipPath id="6df9b6a5ca"><rect x="0" width="33" y="0" height="95"/></clipPath></defs><g clip-path="url(#b03b24384d)"><g mask="url(#adafb366d7)"><g transform="matrix(1, 0, 0, 1, 90, 0)"><g clip-path="url(#66755220ed)"><g clip-path="url(#52b249ca94)"><g clip-path="url(#7e7c6d60a2)"><path fill="#ffffff" d="M 171.101562 134.449219 L 1.070312 134.449219 L 1.070312 -14.109375 L 171.101562 -14.109375 Z M 171.101562 134.449219 " fill-opacity="1" fill-rule="nonzero"/></g></g></g></g></g></g><g clip-path="url(#1da4c5f386)"><g mask="url(#47350b8ce7)"><g transform="matrix(1, 0, 0, 1, 37, 0)"><g clip-path="url(#e644f98859)"><g clip-path="url(#7d92194485)"><g clip-path="url(#39e5e80a5c)"><path fill="#ffffff" d="M 170.53125 104.589844 L 0.503906 104.589844 L 0.503906 -43.96875 L 170.53125 -43.96875 Z M 170.53125 104.589844 " fill-opacity="1" fill-rule="nonzero"/></g></g></g></g></g></g><g clip-path="url(#a6ff789b88)"><g mask="url(#cdd2ff57d7)"><g transform="matrix(1, 0, 0, 1, 143, 0)"><g clip-path="url(#c62855705d)"><g clip-path="url(#3de18ece41)"><g clip-path="url(#21d2af1942)"><path fill="#ffffff" d="M 170.21875 104.589844 L 0.1875 104.589844 L 0.1875 -43.96875 L 170.21875 -43.96875 Z M 170.21875 104.589844 " fill-opacity="1" fill-rule="nonzero"/></g></g></g></g></g></g><g clip-path="url(#f3bd9b68f2)"><g mask="url(#329f7f4df6)"><g transform="matrix(1, 0, 0, 1, 0.000000000000000014, 158)"><g clip-path="url(#1b745e37ca)"><g clip-path="url(#d39e0b0a69)"><g clip-path="url(#be14c1bc2c)"><path fill="#ffffff" d="M -85.507812 0.894531 L 84.523438 0.894531 L 84.523438 149.453125 L -85.507812 149.453125 Z M -85.507812 0.894531 " fill-opacity="1" fill-rule="nonzero"/></g></g></g></g></g></g><g clip-path="url(#4a9e731e6f)"><g mask="url(#99566a8e69)"><g transform="matrix(1, 0, 0, 1, 0.000000000000000014, 188)"><g clip-path="url(#b4c89e380f)"><g clip-path="url(#132a6f6029)"><g clip-path="url(#e42375f016)"><path fill="#ffffff" d="M -31.9375 0.753906 L 138.089844 0.753906 L 138.089844 149.3125 L -31.9375 149.3125 Z M -31.9375 0.753906 " fill-opacity="1" fill-rule="nonzero"/></g></g></g></g></g></g><g clip-path="url(#9d02edb7c4)"><g mask="url(#c4d3e35d14)"><g transform="matrix(1, 0, 0, 1, 0.000000000000000014, 188)"><g clip-path="url(#6df9b6a5ca)"><g clip-path="url(#68fb22560a)"><g clip-path="url(#b407b54d74)"><path fill="#ffffff" d="M -137.621094 0.753906 L 32.40625 0.753906 L 32.40625 149.3125 L -137.621094 149.3125 Z M -137.621094 0.753906 " fill-opacity="1" fill-rule="nonzero"/></g></g></g></g></g></g></svg>