<svg xmlns="http://www.w3.org/2000/svg" xmlns:xlink="http://www.w3.org/1999/xlink" width="226" zoomAndPan="magnify" viewBox="0 0 170.25 283.499983" height="377" preserveAspectRatio="xMidYMid meet" version="1.0"><defs><filter x="0%" y="0%" width="100%" height="100%" id="f2736add49"><feColorMatrix values="0 0 0 0 1 0 0 0 0 1 0 0 0 0 1 0 0 0 1 0" color-interpolation-filters="sRGB"/></filter><clipPath id="d5b1b49c12"><path d="M 97 134 L 169.503906 134 L 169.503906 282.628906 L 97 282.628906 Z M 97 134 " clip-rule="nonzero"/></clipPath><mask id="79e21d04fc"><g filter="url(#f2736add49)"><rect x="-17.025" width="204.3" fill="#000000" y="-28.349998" height="340.19998" fill-opacity="0.35"/></g></mask><clipPath id="548f30d02a"><path d="M 0.6875 0.429688 L 72.503906 0.429688 L 72.503906 148.59375 L 0.6875 148.59375 Z M 0.6875 0.429688 " clip-rule="nonzero"/></clipPath><clipPath id="c03042d4bf"><path d="M 85.351562 0.429688 L 170.019531 148.59375 L 0.6875 148.59375 Z M 85.351562 0.429688 " clip-rule="nonzero"/></clipPath><clipPath id="680c4a2f46"><rect x="0" width="73" y="0" height="149"/></clipPath><clipPath id="c3d83cb3e9"><path d="M 0 167 L 23 167 L 23 282.628906 L 0 282.628906 Z M 0 167 " clip-rule="nonzero"/></clipPath><mask id="e6719804e4"><g filter="url(#f2736add49)"><rect x="-17.025" width="204.3" fill="#000000" y="-28.349998" height="340.19998" fill-opacity="0.16"/></g></mask><clipPath id="9b47bf4b7a"><path d="M 0 0.347656 L 22.710938 0.347656 L 22.710938 115.628906 L 0 115.628906 Z M 0 0.347656 " clip-rule="nonzero"/></clipPath><clipPath id="8b1e5ef312"><path d="M -62.203125 0.347656 L 22.460938 148.511719 L -146.871094 148.511719 Z M -62.203125 0.347656 " clip-rule="nonzero"/></clipPath><clipPath id="dc8eb2638d"><rect x="0" width="23" y="0" height="116"/></clipPath><clipPath id="1d8d849915"><path d="M 0 134 L 73 134 L 73 282.628906 L 0 282.628906 Z M 0 134 " clip-rule="nonzero"/></clipPath><mask id="576c72a1b3"><g filter="url(#f2736add49)"><rect x="-17.025" width="204.3" fill="#000000" y="-28.349998" height="340.19998" fill-opacity="0.35"/></g></mask><clipPath id="ddba9e4496"><path d="M 0 0.429688 L 72.453125 0.429688 L 72.453125 148.59375 L 0 148.59375 Z M 0 0.429688 " clip-rule="nonzero"/></clipPath><clipPath id="ff855e03b8"><path d="M -12.460938 0.429688 L 72.203125 148.59375 L -97.128906 148.59375 Z M -12.460938 0.429688 " clip-rule="nonzero"/></clipPath><clipPath id="5fce092eb4"><rect x="0" width="73" y="0" height="149"/></clipPath></defs><g clip-path="url(#d5b1b49c12)"><g mask="url(#79e21d04fc)"><g transform="matrix(1, 0, 0, 1, 97, 134)"><g clip-path="url(#680c4a2f46)"><g clip-path="url(#548f30d02a)"><g clip-path="url(#c03042d4bf)"><path fill="#ffc5e6" d="M 0.6875 0.429688 L 170.265625 0.429688 L 170.265625 148.59375 L 0.6875 148.59375 Z M 0.6875 0.429688 " fill-opacity="1" fill-rule="nonzero"/></g></g></g></g></g></g><g clip-path="url(#c3d83cb3e9)"><g mask="url(#e6719804e4)"><g transform="matrix(1, 0, 0, 1, 0, 167)"><g clip-path="url(#dc8eb2638d)"><g clip-path="url(#9b47bf4b7a)"><g clip-path="url(#8b1e5ef312)"><path fill="#ffffff" d="M -146.871094 0.347656 L 22.710938 0.347656 L 22.710938 148.511719 L -146.871094 148.511719 Z M -146.871094 0.347656 " fill-opacity="1" fill-rule="nonzero"/></g></g></g></g></g></g><g clip-path="url(#1d8d849915)"><g mask="url(#576c72a1b3)"><g transform="matrix(1, 0, 0, 1, 0, 134)"><g clip-path="url(#5fce092eb4)"><g clip-path="url(#ddba9e4496)"><g clip-path="url(#ff855e03b8)"><path fill="#ffc5e6" d="M -97.128906 0.429688 L 72.453125 0.429688 L 72.453125 148.59375 L -97.128906 148.59375 Z M -97.128906 0.429688 " fill-opacity="1" fill-rule="nonzero"/></g></g></g></g></g></g></svg>