<svg xmlns="http://www.w3.org/2000/svg" xmlns:xlink="http://www.w3.org/1999/xlink" width="1152" zoomAndPan="magnify" viewBox="0 0 864 863.999991" height="1152" preserveAspectRatio="xMidYMid meet" version="1.0"><defs><filter x="0%" y="0%" width="100%" height="100%" id="159c6f7e80"><feColorMatrix values="0 0 0 0 1 0 0 0 0 1 0 0 0 0 1 0 0 0 1 0" color-interpolation-filters="sRGB"/></filter><mask id="2bf916ef1c"><g filter="url(#159c6f7e80)"><rect x="-86.4" width="1036.8" fill="#000000" y="-86.399999" height="1036.79999" fill-opacity="0.35"/></g></mask><clipPath id="6eaaa36a36"><path d="M 0.351562 0.84375 L 832.015625 0.84375 L 832.015625 832.503906 L 0.351562 832.503906 Z M 0.351562 0.84375 " clip-rule="nonzero"/></clipPath><clipPath id="ab34021813"><path d="M 416.183594 0.84375 C 186.527344 0.84375 0.351562 187.015625 0.351562 416.675781 C 0.351562 646.332031 186.527344 832.503906 416.183594 832.503906 C 645.84375 832.503906 832.015625 646.332031 832.015625 416.675781 C 832.015625 187.015625 645.84375 0.84375 416.183594 0.84375 Z M 416.183594 0.84375 " clip-rule="nonzero"/></clipPath><clipPath id="44e34cd519"><rect x="0" width="833" y="0" height="833"/></clipPath><clipPath id="640acf9431"><path d="M 181.976562 182.464844 L 688.394531 182.464844 L 688.394531 688.882812 L 181.976562 688.882812 Z M 181.976562 182.464844 " clip-rule="nonzero"/></clipPath><clipPath id="2f82a14db9"><path d="M 435.183594 182.464844 L 515.753906 355.105469 L 688.394531 435.675781 L 515.753906 516.242188 L 435.183594 688.882812 L 354.613281 516.242188 L 181.976562 435.675781 L 354.613281 355.105469 Z M 435.183594 182.464844 " clip-rule="nonzero"/></clipPath></defs><g mask="url(#2bf916ef1c)"><g transform="matrix(1, 0, 0, 1, 19, 19)"><g clip-path="url(#44e34cd519)"><g clip-path="url(#6eaaa36a36)"><g clip-path="url(#ab34021813)"><path fill="#9641f6" d="M 0.351562 0.84375 L 832.015625 0.84375 L 832.015625 832.503906 L 0.351562 832.503906 Z M 0.351562 0.84375 " fill-opacity="1" fill-rule="nonzero"/></g></g></g></g></g><g clip-path="url(#640acf9431)"><g clip-path="url(#2f82a14db9)"><path fill="#752fbb" d="M 181.976562 182.464844 L 688.394531 182.464844 L 688.394531 688.882812 L 181.976562 688.882812 Z M 181.976562 182.464844 " fill-opacity="1" fill-rule="nonzero"/></g></g></svg>