<svg xmlns="http://www.w3.org/2000/svg" xmlns:xlink="http://www.w3.org/1999/xlink" width="1152" zoomAndPan="magnify" viewBox="0 0 864 863.999991" height="1152" preserveAspectRatio="xMidYMid meet" version="1.0"><defs><clipPath id="595e585fbb"><path d="M 18.480469 19.6875 L 838.273438 19.6875 L 838.273438 839.480469 L 18.480469 839.480469 Z M 18.480469 19.6875 " clip-rule="nonzero"/></clipPath><clipPath id="b5cfbdbcb2"><path d="M 428.378906 19.6875 C 202 19.6875 18.480469 203.207031 18.480469 429.585938 C 18.480469 655.964844 202 839.480469 428.378906 839.480469 C 654.757812 839.480469 838.273438 655.964844 838.273438 429.585938 C 838.273438 203.207031 654.757812 19.6875 428.378906 19.6875 Z M 428.378906 19.6875 " clip-rule="nonzero"/></clipPath><clipPath id="79b6a7eb86"><path d="M 178.785156 179.992188 L 677.972656 179.992188 L 677.972656 679.179688 L 178.785156 679.179688 Z M 178.785156 179.992188 " clip-rule="nonzero"/></clipPath><clipPath id="6d681f66d3"><path d="M 428.378906 179.992188 L 507.796875 350.164062 L 677.972656 429.585938 L 507.796875 509.003906 L 428.378906 679.179688 L 348.957031 509.003906 L 178.785156 429.585938 L 348.957031 350.164062 Z M 428.378906 179.992188 " clip-rule="nonzero"/></clipPath></defs><g clip-path="url(#595e585fbb)"><g clip-path="url(#b5cfbdbcb2)"><path fill="#ffc5e6" d="M 18.480469 19.6875 L 838.273438 19.6875 L 838.273438 839.480469 L 18.480469 839.480469 Z M 18.480469 19.6875 " fill-opacity="1" fill-rule="nonzero"/></g></g><g clip-path="url(#79b6a7eb86)"><g clip-path="url(#6d681f66d3)"><path fill="#bd036d" d="M 178.785156 179.992188 L 677.972656 179.992188 L 677.972656 679.179688 L 178.785156 679.179688 Z M 178.785156 179.992188 " fill-opacity="1" fill-rule="nonzero"/></g></g></svg>