<svg xmlns="http://www.w3.org/2000/svg" xmlns:xlink="http://www.w3.org/1999/xlink" width="1200" zoomAndPan="magnify" viewBox="0 0 900 899.99999" height="1200" preserveAspectRatio="xMidYMid meet" version="1.0"><defs><clipPath id="cb87643f19"><path d="M 307 280.113281 L 535 280.113281 L 535 619.863281 L 307 619.863281 Z M 307 280.113281 " clip-rule="nonzero"/></clipPath></defs><rect x="-90" width="1080" fill="none" y="-89.999999" height="1079.999988" fill-opacity="1"/><rect x="-90" width="1080" fill="none" y="-89.999999" height="1079.999988" fill-opacity="1"/><g clip-path="url(#cb87643f19)"><path fill="#000000" d="M 525.285156 280.007812 C 524.988281 280.019531 524.691406 280.050781 524.398438 280.09375 C 524.105469 280.144531 523.8125 280.207031 523.527344 280.285156 C 522.359375 280.589844 521.296875 281.109375 520.34375 281.84375 C 519.386719 282.578125 518.613281 283.46875 518.019531 284.519531 C 517.769531 284.957031 517.558594 285.417969 517.390625 285.894531 C 498.171875 337.09375 465.78125 360.449219 434.832031 371.949219 C 426.414062 375.078125 418.191406 377.214844 410.359375 378.757812 C 412.058594 376.640625 413.601562 374.410156 414.984375 372.074219 C 416.371094 369.738281 417.585938 367.3125 418.628906 364.804688 C 419.675781 362.300781 420.539062 359.730469 421.222656 357.101562 C 421.90625 354.472656 422.402344 351.808594 422.710938 349.109375 C 423.019531 346.410156 423.136719 343.703125 423.066406 340.988281 C 422.992188 338.273438 422.730469 335.578125 422.277344 332.898438 C 421.828125 330.21875 421.1875 327.585938 420.367188 324.996094 C 419.542969 322.410156 418.542969 319.890625 417.367188 317.441406 C 416.191406 314.992188 414.847656 312.640625 413.339844 310.378906 C 411.832031 308.117188 410.171875 305.976562 408.363281 303.949219 C 406.554688 301.921875 404.609375 300.03125 402.535156 298.277344 C 400.460938 296.523438 398.269531 294.921875 395.96875 293.476562 C 393.667969 292.027344 391.277344 290.75 388.796875 289.640625 C 386.316406 288.527344 383.769531 287.597656 381.160156 286.84375 C 378.546875 286.089844 375.894531 285.523438 373.203125 285.140625 C 370.511719 284.761719 367.804688 284.570312 365.085938 284.570312 C 363.1875 284.570312 361.292969 284.664062 359.402344 284.847656 C 357.511719 285.035156 355.632812 285.3125 353.769531 285.683594 C 351.90625 286.054688 350.066406 286.515625 348.246094 287.066406 C 346.429688 287.617188 344.640625 288.257812 342.886719 288.984375 C 341.132812 289.707031 339.417969 290.519531 337.742188 291.414062 C 336.066406 292.308594 334.4375 293.285156 332.855469 294.339844 C 331.277344 295.394531 329.753906 296.523438 328.285156 297.726562 C 326.816406 298.929688 325.410156 300.203125 324.066406 301.546875 C 322.722656 302.890625 321.449219 304.292969 320.242188 305.761719 C 319.039062 307.230469 317.90625 308.753906 316.851562 310.332031 C 315.796875 311.910156 314.820312 313.535156 313.925781 315.210938 C 313.027344 316.882812 312.21875 318.597656 311.492188 320.351562 C 310.761719 322.105469 310.125 323.890625 309.574219 325.707031 C 309.019531 327.523438 308.558594 329.363281 308.1875 331.226562 C 307.816406 333.085938 307.539062 334.960938 307.355469 336.851562 C 307.167969 338.742188 307.074219 340.632812 307.074219 342.53125 C 307.074219 344.429688 307.167969 346.324219 307.355469 348.214844 C 307.539062 350.101562 307.816406 351.980469 308.1875 353.839844 C 308.558594 355.703125 309.019531 357.542969 309.574219 359.359375 C 310.125 361.175781 310.761719 362.960938 311.492188 364.714844 C 312.21875 366.46875 313.027344 368.183594 313.925781 369.855469 C 314.820312 371.53125 315.796875 373.15625 316.851562 374.734375 C 317.90625 376.3125 319.039062 377.835938 320.242188 379.304688 C 321.449219 380.769531 322.722656 382.175781 324.066406 383.519531 C 325.410156 384.859375 326.816406 386.132812 328.285156 387.339844 C 329.753906 388.542969 331.277344 389.671875 332.855469 390.726562 C 334.4375 391.78125 336.066406 392.757812 337.742188 393.652344 C 339.414062 394.546875 341.132812 395.355469 342.886719 396.082031 C 344.640625 396.808594 346.429688 397.449219 348.246094 398 C 350.066406 398.550781 351.90625 399.011719 353.769531 399.382812 C 355.632812 399.753906 357.511719 400.03125 359.402344 400.214844 C 361.292969 400.402344 363.1875 400.496094 365.085938 400.496094 C 366.675781 400.480469 368.261719 400.398438 369.847656 400.25 C 384.511719 400.289062 411.589844 399.613281 441.039062 388.667969 C 457.511719 382.546875 474.511719 372.71875 490.144531 358.488281 L 396.902344 606.917969 C 396.667969 607.46875 396.496094 608.039062 396.378906 608.628906 C 396.261719 609.21875 396.207031 609.8125 396.210938 610.410156 C 396.210938 611.007812 396.277344 611.601562 396.398438 612.1875 C 396.523438 612.777344 396.703125 613.34375 396.941406 613.894531 C 397.179688 614.445312 397.46875 614.964844 397.8125 615.457031 C 398.152344 615.949219 398.542969 616.402344 398.976562 616.816406 C 399.410156 617.230469 399.882812 617.59375 400.390625 617.914062 C 400.898438 618.234375 401.433594 618.496094 401.996094 618.707031 C 402.558594 618.917969 403.132812 619.070312 403.726562 619.167969 C 404.320312 619.261719 404.914062 619.296875 405.515625 619.269531 C 406.113281 619.246094 406.703125 619.160156 407.285156 619.015625 C 407.867188 618.871094 408.429688 618.667969 408.972656 618.410156 C 409.515625 618.15625 410.023438 617.84375 410.503906 617.484375 C 410.984375 617.125 411.421875 616.71875 411.820312 616.269531 C 412.214844 615.820312 412.566406 615.339844 412.867188 614.820312 C 413.164062 614.300781 413.410156 613.757812 413.601562 613.1875 L 534.089844 292.164062 C 534.3125 291.605469 534.472656 291.03125 534.578125 290.441406 C 534.628906 290.152344 534.664062 289.859375 534.683594 289.570312 C 534.703125 289.265625 534.710938 288.964844 534.699219 288.664062 C 534.683594 288.070312 534.609375 287.484375 534.472656 286.902344 C 534.203125 285.730469 533.714844 284.65625 533.007812 283.683594 C 532.660156 283.195312 532.265625 282.75 531.824219 282.339844 C 531.605469 282.144531 531.378906 281.957031 531.144531 281.785156 C 530.902344 281.601562 530.652344 281.433594 530.394531 281.277344 C 530.140625 281.125 529.878906 280.988281 529.609375 280.859375 C 529.34375 280.730469 529.070312 280.613281 528.789062 280.511719 C 528.511719 280.410156 528.226562 280.324219 527.9375 280.25 C 527.359375 280.109375 526.769531 280.03125 526.175781 280.007812 C 525.878906 279.992188 525.582031 279.992188 525.285156 280.007812 Z M 525.285156 280.007812 " fill-opacity="1" fill-rule="nonzero"/></g></svg>