<svg xmlns="http://www.w3.org/2000/svg" xmlns:xlink="http://www.w3.org/1999/xlink" width="1200" zoomAndPan="magnify" viewBox="0 0 900 899.99999" height="1200" preserveAspectRatio="xMidYMid meet" version="1.0"><defs><clipPath id="f4f91f5d23"><path d="M 239.578125 42.734375 L 684.328125 42.734375 L 684.328125 865.484375 L 239.578125 865.484375 Z M 239.578125 42.734375 " clip-rule="nonzero"/></clipPath></defs><rect x="-90" width="1080" fill="none" y="-89.999999" height="1079.999988" fill-opacity="1"/><rect x="-90" width="1080" fill="none" y="-89.999999" height="1079.999988" fill-opacity="1"/><g clip-path="url(#f4f91f5d23)"><path fill="#000000" d="M 483.910156 42.828125 C 489.617188 83.964844 490.421875 135.867188 532.78125 187.742188 C 565.363281 227.257812 602.027344 262.695312 627.257812 294.765625 C 660.679688 336.769531 684.320312 389.464844 684.320312 442.988281 C 684.320312 528.621094 643.597656 613.414062 615.886719 660.351562 L 602.839844 660.351562 C 622.398438 615.855469 661.496094 542.605469 658.222656 464.394531 C 657.988281 458.757812 657.539062 453.136719 656.875 447.535156 C 656.210938 441.933594 655.328125 436.363281 654.234375 430.828125 C 653.140625 425.292969 651.832031 419.808594 650.316406 414.375 C 648.796875 408.941406 647.074219 403.574219 645.140625 398.273438 C 643.210938 392.972656 641.078125 387.753906 638.742188 382.617188 C 636.410156 377.480469 633.878906 372.441406 631.15625 367.5 C 628.433594 362.558594 625.527344 357.730469 622.429688 353.015625 C 619.335938 348.296875 616.066406 343.707031 612.617188 339.246094 C 581.660156 298.886719 529.542969 266.773438 483.910156 263.492188 L 483.910156 730.320312 C 483.910156 767.375 461.917969 801.125 430.148438 825.832031 C 426.355469 828.871094 422.445312 831.75 418.421875 834.472656 C 414.394531 837.195312 410.269531 839.75 406.035156 842.136719 C 401.804688 844.527344 397.484375 846.742188 393.074219 848.78125 C 388.664062 850.820312 384.179688 852.679688 379.621094 854.355469 C 375.058594 856.03125 370.4375 857.523438 365.757812 858.828125 C 361.078125 860.132812 356.355469 861.246094 351.582031 862.167969 C 346.8125 863.09375 342.015625 863.820312 337.1875 864.355469 C 332.355469 864.890625 327.515625 865.230469 322.65625 865.375 C 317.386719 865.476562 312.140625 865.128906 306.929688 864.324219 C 301.714844 863.519531 296.609375 862.277344 291.613281 860.59375 C 286.613281 858.90625 281.796875 856.804688 277.160156 854.289062 C 272.527344 851.773438 268.140625 848.878906 264.003906 845.605469 C 262.0625 844.066406 260.21875 842.417969 258.464844 840.667969 C 256.714844 838.914062 255.070312 837.066406 253.53125 835.125 C 251.992188 833.183594 250.570312 831.160156 249.265625 829.054688 C 247.957031 826.949219 246.777344 824.777344 245.722656 822.535156 C 244.664062 820.292969 243.738281 818 242.949219 815.652344 C 242.15625 813.304688 241.5 810.917969 240.980469 808.496094 C 240.460938 806.074219 240.085938 803.628906 239.847656 801.164062 C 239.609375 798.695312 239.511719 796.222656 239.558594 793.746094 C 239.558594 759.988281 262.367188 726.222656 293.324219 701.53125 C 324.277344 676 363.371094 659.554688 395.964844 659.554688 C 424.492188 659.554688 448.921875 663.675781 463.578125 677.664062 L 463.578125 42.828125 L 483.945312 42.828125 Z M 483.910156 42.828125 " fill-opacity="1" fill-rule="evenodd"/></g></svg>