<svg xmlns="http://www.w3.org/2000/svg" xmlns:xlink="http://www.w3.org/1999/xlink" width="1200" zoomAndPan="magnify" viewBox="0 0 900 899.99999" height="1200" preserveAspectRatio="xMidYMid meet" version="1.0"><defs><clipPath id="fb42ffb158"><path d="M 362 146 L 531.382812 146 L 531.382812 755.695312 L 362 755.695312 Z M 362 146 " clip-rule="nonzero"/></clipPath></defs><rect x="-90" width="1080" fill="none" y="-89.999999" height="1079.999988" fill-opacity="1"/><rect x="-90" width="1080" fill="none" y="-89.999999" height="1079.999988" fill-opacity="1"/><g clip-path="url(#fb42ffb158)"><path fill="#000000" d="M 413.769531 146.40625 C 417.050781 144.324219 438.5625 167.585938 529.46875 298.042969 C 522.175781 308.4375 512.886719 322.804688 503.613281 340.738281 C 498.652344 350.332031 487.339844 370.089844 481.636719 392.496094 C 475.1875 417.851562 465.851562 454.519531 478.148438 499.050781 C 490.417969 543.496094 517.546875 571.585938 531.40625 584.0625 C 527.632812 586.949219 523.863281 589.839844 520.097656 592.726562 C 513.628906 589.226562 502.042969 584.050781 486.808594 583.089844 C 478.765625 582.582031 464.398438 581.53125 451.714844 589.417969 C 436.308594 599 431.4375 615.398438 428.636719 624.820312 C 413.617188 675.363281 449.253906 737.878906 455.785156 749.035156 C 452.757812 751.136719 449.734375 753.242188 446.710938 755.355469 C 375.640625 685.835938 346.066406 609.40625 370.457031 569.507812 C 376.898438 558.964844 392.574219 542.050781 416.539062 535.738281 C 452.320312 526.316406 482.378906 546.917969 487.414062 550.484375 C 457.746094 498.21875 428.078125 445.953125 398.414062 393.695312 C 416.214844 379.152344 442.695312 353.074219 452.875 314.542969 C 474.523438 232.621094 407.734375 150.230469 413.769531 146.40625 Z M 413.769531 146.40625 " fill-opacity="1" fill-rule="nonzero"/></g></svg>