<svg xmlns="http://www.w3.org/2000/svg" xmlns:xlink="http://www.w3.org/1999/xlink" width="1200" zoomAndPan="magnify" viewBox="0 0 900 899.99999" height="1200" preserveAspectRatio="xMidYMid meet" version="1.0"><defs><clipPath id="209b4b558d"><path d="M 251.011719 604.652344 L 632 604.652344 L 632 835.652344 L 251.011719 835.652344 Z M 251.011719 604.652344 " clip-rule="nonzero"/></clipPath></defs><rect x="-90" width="1080" fill="none" y="-89.999999" height="1079.999988" fill-opacity="1"/><rect x="-90" width="1080" fill="none" y="-89.999999" height="1079.999988" fill-opacity="1"/><g clip-path="url(#209b4b558d)"><path fill="#000000" d="M 441.511719 604.652344 C 336.382812 604.652344 251.144531 656.339844 251.144531 720.152344 C 251.144531 783.964844 336.382812 835.652344 441.511719 835.652344 C 546.640625 835.652344 631.875 783.917969 631.875 720.152344 C 631.875 656.390625 546.640625 604.652344 441.511719 604.652344 Z M 474.375 813.238281 C 433.332031 827.683594 385.316406 797.734375 367.117188 746.289062 C 348.917969 694.839844 367.503906 641.464844 408.546875 627.019531 C 449.59375 612.574219 497.609375 642.527344 515.808594 693.972656 C 534.007812 745.417969 515.46875 798.796875 474.375 813.238281 Z M 474.375 813.238281 " fill-opacity="1" fill-rule="evenodd"/></g></svg>